<svg width="14" height="16" viewBox="0 0 14 16" fill="none" xmlns="http://www.w3.org/2000/svg">
<path d="M11.3639 8.50865C11.3799 7.26198 12.0332 6.11065 13.0952 5.45798C12.4226 4.49665 11.3352 3.90931 10.1626 3.87265C8.92858 3.74331 7.73258 4.61065 7.10392 4.61065C6.46325 4.61065 5.49525 3.88531 4.45258 3.90665C3.08125 3.95131 1.83325 4.71198 1.16591 5.91131C-0.254752 8.37131 0.804581 11.9873 2.16591 13.976C2.84725 14.95 3.64258 16.0373 4.68458 15.9993C5.70392 15.9573 6.08458 15.3493 7.31458 15.3493C8.53325 15.3493 8.89058 15.9993 9.95325 15.9746C11.0466 15.9566 11.7359 14.9966 12.3932 14.0133C12.8826 13.3193 13.2592 12.5526 13.5086 11.7413C12.2099 11.192 11.3652 9.91931 11.3639 8.50865Z" fill="#303030"/>
<path d="M9.35655 2.56467C9.95255 1.84867 10.2466 0.928667 10.1752 0C9.26455 0.096 8.42255 0.531333 7.81855 1.21933C7.22188 1.89867 6.91922 2.78667 6.97788 3.68933C7.90122 3.69867 8.77788 3.284 9.35655 2.56467Z" fill="#303030"/>
</svg>
