<svg width="26" height="22" viewBox="0 0 26 22" fill="none" xmlns="http://www.w3.org/2000/svg">
<path d="M19.4719 5.74149C19.1123 5.66999 18.8187 5.44574 18.6681 5.12507C16.9868 1.58149 13.0965 -0.399929 9.20519 0.317238C5.66052 0.967237 2.88177 3.7969 2.28919 7.35999C2.11369 8.4119 2.12669 9.4649 2.32494 10.4908C2.38994 10.8256 2.24586 11.1982 1.95011 11.4669C0.70969 12.5947 -0.000976562 14.2012 -0.000976562 15.8761C-0.000976562 19.1607 2.67161 21.8344 5.95736 21.8344H17.874C22.3547 21.8344 25.999 18.1901 25.999 13.7094C25.999 9.84732 23.2539 6.49657 19.4709 5.74257L19.4719 5.74149ZM16.3812 13.9337L13.4486 16.8662C13.0294 17.2855 12.4779 17.4967 11.9265 17.4989L11.9168 17.5011L11.907 17.4989C11.3556 17.4967 10.8042 17.2855 10.3849 16.8662L7.45236 13.9337C7.02877 13.5101 7.02877 12.8254 7.45236 12.4018C7.87594 11.9782 8.56061 11.9782 8.98419 12.4018L10.8334 14.2511V8.8344C10.8334 8.23532 11.3188 7.75107 11.9168 7.75107C12.5148 7.75107 13.0001 8.23532 13.0001 8.8344V14.2511L14.8494 12.4018C15.2729 11.9782 15.9576 11.9782 16.3812 12.4018C16.8048 12.8254 16.8048 13.5101 16.3812 13.9337Z" fill="#0578BE"/>
</svg>
